# AST/ASF file generated using VICON BodyLanguage
# -----------------------------------------------
:version 1.10
:name VICON
:units
  mass 1.0
  length 0.45
  angle deg
:documentation
   .ast/.asf automatically generated from VICON data using
   VICON BodyBuilder and BodyLanguage model FoxedUp or BRILLIANT.MOD
:root
   order TX TY TZ RX RY RZ
   axis XYZ
   position 0 0 0  
   orientation 0 0 0 
:bonedata
  begin
     id 1 
     name lhipjoint
     direction 0.537252 -0.787203 0.302774 
     length 2.29576 
     axis 0 0 0  XYZ
  end
  begin
     id 2 
     name lfemur
     direction 0.34202 -0.939693 0  
     length 7.31114  
     axis 0 0 20  XYZ
    dof rx ry rz
    limits (-160.0 20.0)
           (-70.0 70.0)
           (-60.0 70.0)
  end
  begin
     id 3 
     name ltibia
     direction 0.34202 -0.939693 0   
     length 8.36008   
     axis 0 0 20   XYZ
    dof rx
    limits (-10.0 170.0)
  end
  begin
     id 4 
     name lfoot
     direction 0.0969116 -0.266263 0.959016   
     length 2.16704   
     axis -90 7.62852e-016 20   XYZ
    dof rx rz
    limits (-45.0 90.0)
           (-70.0 20.0)
  end
  begin
     id 5 
     name ltoes
     direction 1.53563e-011 -4.21779e-011 1   
     length 1.08338   
     axis -90 7.62852e-016 20   XYZ
    dof rx
    limits (-90.0 20.0)
  end
  begin
     id 6 
     name rhipjoint
     direction -0.588228 -0.754791 0.290308   
     length 2.39434  
     axis 0 0 0  XYZ 
  end
  begin
     id 7 
     name rfemur
     direction -0.34202 -0.939693 0   
     length 7.45207   
     axis 0 0 -20   XYZ
    dof rx ry rz
    limits (-160.0 20.0)
           (-70.0 70.0)
           (-70.0 60.0)
  end
  begin
     id 8 
     name rtibia
     direction -0.34202 -0.939693 0   
     length 8.03565   
     axis 0 0 -20   XYZ
    dof rx
    limits (-10.0 170.0)
 end
 begin
     id 9 
     name rfoot
     direction -0.107009 -0.294004 0.949795   
     length 2.11509  
     axis -90 -7.62852e-016 -20   XYZ
    dof rx rz
    limits (-45.0 90.0)
           (-20.0 70.0)
  end
  begin
     id 10 
     name rtoes
     direction -1.53533e-011 -4.22004e-011 1   
     length 1.05493   
     axis -90 -7.62852e-016 -20   XYZ
    dof rx
    limits (-90.0 20.0)
  end
  begin
     id 11 
     name lowerback
     direction -0.0115208 0.997969 -0.0626515   
     length 2.03153   
     axis 0 0 0   XYZ
    dof rx ry rz
    limits (-20.0 45.0)
           (-30.0 30.0)
           (-30.0 30.0)
  end
  begin
     id 12 
     name upperback
     direction -0.00423475 0.999974 -0.00583614   
     length 2.03619   
     axis 0 0 0   XYZ
    dof rx ry rz
    limits (-20.0 45.0)
           (-30.0 30.0)
           (-30.0 30.0)
  end
  begin
     id 13 
     name thorax
     direction 0.00289429 0.999728 0.0231573   
     length 2.03921   
     axis 0 0 0   XYZ
    dof rx ry rz
    limits (-20.0 45.0)
           (-30.0 30.0)
           (-30.0 30.0)
  end
  begin
     id 14 
     name lowerneck
     direction 0.0188995 0.987777 0.154721   
     length 1.78836   
     axis 0 0 0   XYZ
    dof rx ry rz
    limits (-20.0 45.0)
           (-30.0 30.0)
           (-30.0 30.0)
  end
  begin
     id 15 
     name upperneck
     direction -0.00612612 0.992995 -0.118   
     length 1.81789   
     axis 0 0 0   XYZ
    dof rx ry rz
    limits (-20.0 45.0)
           (-30.0 30.0)
           (-30.0 30.0)
  end
  begin
     id 16
     name head
     direction -0.00420226 0.998397 -0.0564482  
     length 1.82234  
     axis 0 0 0   XYZ
    dof rx ry rz
    limits (-20.0 45.0)
           (-30.0 30.0)
           (-30.0 30.0)
  end
  begin
     id 17 
     name lclavicle
     direction 0.916488 0.396539 0.0529676  
     length 3.51732  
     axis 0 0 0   XYZ
    dof ry rz
    limits (-20.0 10.0)
           (0.0 20.0)
  end
  begin
     id 18 
     name lhumerus
     direction 1 -4.4896e-011 8.36962e-028   
     length 5.45077   
     axis 180 -30 -90   XYZ
    dof rx ry rz
    limits (-60.0 90.0)
           (-90.0 90.0)
           (-90.0 90.0)
  end
  begin
     id 19
     name lradius
     direction 1 -4.48962e-011 3.01407e-027   
     length 3.05488   
     axis 180 -30 -90   XYZ
    dof rx
    limits (-10.0 170.0)
  end
  begin
     id 20
     name lwrist
     direction 1 -4.49002e-011 4.72961e-027   
     length 1.52744   
     axis -2.72261e-015 90 90   XYZ
    dof ry
    limits (-180.0 0.0)
 end
  begin
     id 21 
     name lhand
     direction 1 -4.4899e-011 9.45681e-027   
     length 0.638818   
     axis -6.0311e-015 90 90   XYZ
    dof rx rz
    limits (-90.0 90.0)
           (-45.0 45.0)
  end
  begin
     id 22 
     name lfingers
     direction 1 -4.48871e-011 1.88632e-026   
     length 0.515032   
     axis -1.20625e-014 90 90   XYZ
    dof rx
    limits (0.0 90.0)
  end
  begin
     id 23
     name lthumb
     direction 0.707107 -6.34964e-011 0.707107   
     length 0.739485   
     axis -90 45 6.32835e-014   XYZ
    dof rx rz
    limits (-45.0 45.0)
           (-45.0 45.0)
  end
  begin
     id 24 
     name rclavicle
     direction -0.949427 0.303202 0.0815894   
     length 3.76167  
     axis 0 0 0   XYZ 
    dof ry rz
    limits (-10.0 20.0)
           (-20.0 0.0)
  end
  begin
     id 25 
     name rhumerus
     direction -1 -4.48971e-011 -6.43969e-018  
     length 4.88702   
     axis 180 30 90   XYZ
    dof rx ry rz
    limits (-90.0 60.0)
           (-90.0 90.0)
           (-90.0 90.0)
  end
  begin
     id 26 
     name rradius
     direction -1 -4.48987e-011 5.46662e-027   
     length 3.22603   
     axis 180 30 90   XYZ
    dof rx
    limits (-10.0 170.0)
  end
  begin
     id 27 
     name rwrist
     direction -1 -4.48956e-011 4.72476e-027   
     length 1.61302   
     axis -2.72261e-015 -90 -90   XYZ
    dof ry
    limits (-180.0 0.0)
  end
  begin
     id 28
     name rhand
     direction -1 -4.4889e-011 9.43571e-027   
     length 0.716293   
     axis -6.0311e-015 -90 -90   XYZ
    dof rx rz
    limits (-90.0 90.0)
           (-45.0 45.0)
  end
  begin
     id 29
     name rfingers
     direction -1 -4.48887e-011 1.88701e-026   
     length 0.577494   
     axis -1.20625e-014 -90 -90   XYZ
    dof rx
    limits (0.0 90.0)
  end
  begin
     id 30
     name rthumb
     direction -0.707107 -6.34825e-011 0.707107   
     length 0.829169   
     axis -90 -45 -6.32835e-014   XYZ
    dof rx rz
    limits (-45.0 45.0)
           (-45.0 45.0)
  end
:hierarchy
  begin
    root lhipjoint rhipjoint lowerback
    lhipjoint lfemur
    lfemur ltibia
    ltibia lfoot
    lfoot ltoes
    rhipjoint rfemur
    rfemur rtibia
    rtibia rfoot
    rfoot rtoes
    lowerback upperback
    upperback thorax
    thorax lowerneck lclavicle rclavicle
    lowerneck upperneck
    upperneck head
    lclavicle lhumerus
    lhumerus lradius
    lradius lwrist
    lwrist lhand lthumb
    lhand lfingers
    rclavicle rhumerus
    rhumerus rradius
    rradius rwrist
    rwrist rhand rthumb
    rhand rfingers
  end

#!OML:ASF F:\VICON\USERDATA\INSTALL\rory3\rory3.ASF
:FULLY-SPECIFIED
:DEGREES
880
root 1.49842 18.557 0.543093 38.0958 88.0583 25.3274
lowerback -10.498 3.55085 1.53763
upperback -3.6924 4.8829 -4.71719
thorax 2.55994 2.50398 -5.15637
lowerneck -4.99485 19.6985 15.8576
upperneck 17.1895 30.4393 -16.9165
head 11.4914 14.2086 -3.61363
rclavicle 6.13996e-014 -2.14687e-014
rhumerus -21.7678 -65.6535 12.4703
rradius 68.4372
rwrist -208.8
rhand -8.0527 -10.8721
rfingers 7.12502
rthumb 17.8581 -40.0722
lclavicle 6.13996e-014 -2.14687e-014
lhumerus -72.6075 -56.681 92.4067
lradius 101.621
lwrist 184.195
lhand -19.7809 -5.3641
lfingers 7.12502
lthumb 6.55136 24.5146
rfemur -8.83008 -9.47419 17.1205
rtibia 9.93923e-015
rfoot -1.99864 11.6556
rtoes -10.2261
lfemur -16.0011 8.88219 -19.339
ltibia 16.7082
lfoot -13.2226 -1.46752
ltoes -25.4757
881
root 1.49803 18.5566 0.544997 35.991 88.0678 23.2222
lowerback -10.5299 3.55809 1.5727
upperback -3.65532 4.88656 -4.67986
thorax 2.61605 2.50595 -5.13318
lowerneck -5.17167 19.7156 15.7846
upperneck 17.2743 30.4787 -16.9323
head 11.5537 14.2046 -3.58065
rclavicle 1.6027e-014 -3.10104e-014
rhumerus -21.5598 -65.6121 12.3153
rradius 68.5148
rwrist -208.673
rhand -8.00573 -10.9928
rfingers 7.12502
rthumb 17.9033 -40.1887
lclavicle 1.6027e-014 -3.10104e-014
lhumerus -72.3887 -56.6484 92.3126
lradius 101.586
lwrist 184.261
lhand -19.8656 -5.34595
lfingers 7.12502
lthumb 6.46961 24.5352
rfemur -8.84053 -9.43528 17.1967
rtibia -3.97569e-015
rfoot -1.94252 11.6932
rtoes -10.195
lfemur -16.0031 8.91667 -19.256
ltibia 16.7073
lfoot -13.2296 -1.4877
ltoes -25.3995
882
root 1.49852 18.5553 0.54635 34.9026 88.049 22.1433
lowerback -10.5798 3.56452 1.5864
upperback -3.6144 4.89412 -4.68322
thorax 2.68834 2.51074 -5.13912
lowerneck -5.35608 19.73 15.7602
upperneck 17.3608 30.4895 -16.9049
head 11.6123 14.1913 -3.54508
rclavicle 2.13694e-014 5.56597e-015
rhumerus -21.405 -65.5949 12.0961
rradius 68.5984
rwrist -208.502
rhand -8.04447 -10.9914
rfingers 7.12502
rthumb 17.8661 -40.1908
lclavicle 2.13694e-014 5.56597e-015
lhumerus -72.3166 -56.6811 92.2474
lradius 101.622
lwrist 184.254
lhand -19.853 -5.42014
lfingers 7.12502
lthumb 6.48176 24.4607
rfemur -8.83269 -9.39792 17.2161
rtibia -1.98785e-015
rfoot -1.91248 11.7043
rtoes -9.95898
lfemur -15.9943 8.92998 -19.2239
ltibia 16.7012
lfoot -13.2225 -1.45649
ltoes -25.3179
883
root 1.49753 18.5541 0.548051 34.9836 88.0266 22.2416
lowerback -10.5961 3.56802 1.50933
upperback -3.62271 4.90677 -4.67758
thorax 2.68329 2.51697 -5.08705
lowerneck -5.34055 19.7137 15.7816
upperneck 17.3795 30.4658 -16.8893
head 11.6128 14.1837 -3.54959
rclavicle -4.75841e-014 1.11319e-014
rhumerus -21.2361 -65.4864 11.887
rradius 68.6942
rwrist -208.357
rhand -8.20426 -10.9302
rfingers 7.12502
rthumb 17.7123 -40.1435
lclavicle -4.75841e-014 1.11319e-014
lhumerus -72.3565 -56.6996 92.3014
lradius 101.632
lwrist 184.28
lhand -19.8824 -5.42361
lfingers 7.12502
lthumb 6.4533 24.4581
rfemur -8.81411 -9.38045 17.1989
rtibia -1.90833e-014
rfoot -1.87063 11.6442
rtoes -9.6357
lfemur -15.9603 8.91336 -19.2273
ltibia 16.6746
lfoot -13.2301 -1.40902
ltoes -25.315
884
root 1.49587 18.5537 0.548602 34.4083 88.0114 21.6981
lowerback -10.5891 3.56533 1.50265
upperback -3.62497 4.90357 -4.67479
thorax 2.67599 2.5152 -5.08127
lowerneck -5.36399 19.7197 15.7222
upperneck 17.4368 30.4426 -16.7417
head 11.5947 14.177 -3.50045
rclavicle 2.55438e-014 4.29375e-014
rhumerus -20.9965 -65.3812 11.6174
rradius 68.7637
rwrist -208.188
rhand -8.33668 -10.7419
rfingers 7.12502
rthumb 17.5849 -39.9667
lclavicle 2.55438e-014 4.29375e-014
lhumerus -72.3819 -56.6782 92.3338
lradius 101.62
lwrist 184.209
lhand -19.9865 -5.35694
lfingers 7.12502
lthumb 6.35285 24.5278
rfemur -8.78654 -9.35358 17.2088
rtibia 5.32743e-014
rfoot -1.8607 11.6154
rtoes -9.61235
lfemur -15.8915 8.83744 -19.1952
ltibia 16.6242
lfoot -13.2345 -1.33189
ltoes -25.2448
885
root 1.49485 18.5545 0.547962 35.5892 87.9223 22.902
lowerback -10.5932 3.57458 1.42307
upperback -3.60951 4.92622 -4.70726
thorax 2.69315 2.52719 -5.06646
lowerneck -5.44796 19.743 15.6156
upperneck 17.4762 30.4131 -16.5373
head 11.5606 14.1646 -3.42456
rclavicle 2.99419e-014 -1.43125e-014
rhumerus -20.9014 -65.2597 11.4477
rradius 68.8227
rwrist -208.175
rhand -8.12483 -10.7158
rfingers 7.12502
rthumb 17.7887 -39.9222
lclavicle 2.99419e-014 -1.43125e-014
lhumerus -72.3646 -56.6668 92.3204
lradius 101.657
lwrist 184.155
lhand -19.9562 -5.44055
lfingers 7.12502
lthumb 6.38209 24.4433
rfemur -8.7811 -9.30557 17.1112
rtibia 3.57812e-015
rfoot -1.89376 11.6319
rtoes -9.70551
lfemur -15.8406 8.75395 -19.275
ltibia 16.6033
lfoot -13.2351 -1.19448
ltoes -25.1392
886
root 1.4925 18.5547 0.548483 37.2639 87.8639 24.602
lowerback -10.567 3.56659 1.31065
upperback -3.60706 4.92842 -4.7278
thorax 2.67436 2.52837 -5.02563
lowerneck -5.39682 19.7423 15.5883
upperneck 17.3952 30.3909 -16.5205
head 11.5089 14.1615 -3.42968
rclavicle -2.18663e-014 7.95139e-016
rhumerus -20.8006 -65.1843 11.2684
rradius 68.8499
rwrist -208.258
rhand -8.04001 -10.7276
rfingers 7.12502
rthumb 17.8703 -39.9265
lclavicle -2.18663e-014 7.95139e-016
lhumerus -72.3509 -56.6853 92.3204
lradius 101.683
lwrist 184.17
lhand -19.8631 -5.42938
lfingers 7.12502
lthumb 6.47194 24.4517
rfemur -8.76786 -9.2955 17.0163
rtibia 1.66979e-014
rfoot -1.93027 11.6184
rtoes -9.73981
lfemur -15.8056 8.76944 -19.3687
ltibia 16.5817
lfoot -13.2436 -1.18194
ltoes -25.1124
887
root 1.49134 18.5545 0.550762 36.0817 87.8398 23.4578
lowerback -10.5602 3.56215 1.28193
upperback -3.59119 4.92415 -4.7109
thorax 2.68298 2.52601 -4.99201
lowerneck -5.37744 19.7594 15.6266
upperneck 17.34 30.4146 -16.5718
head 11.5053 14.173 -3.44634
rclavicle 3.77442e-014 -1.27222e-014
rhumerus -20.6357 -65.2027 11.006
rradius 68.8922
rwrist -208.295
rhand -8.06886 -10.6745
rfingers 7.12502
rthumb 17.8426 -39.876
lclavicle 3.77442e-014 -1.27222e-014
lhumerus -72.3123 -56.6987 92.2575
lradius 101.698
lwrist 184.233
lhand -19.7568 -5.39605
lfingers 7.12502
lthumb 6.57461 24.4819
rfemur -8.73626 -9.24519 17.0439
rtibia 2.18663e-014
rfoot -1.94415 11.6419
rtoes -9.69451
lfemur -15.7514 8.84247 -19.3369
ltibia 16.5491
lfoot -13.2083 -1.1826
ltoes -25.209
888
root 1.48981 18.5531 0.551875 35.7093 87.7994 23.1045
lowerback -10.5851 3.55611 1.23223
upperback -3.56162 4.92061 -4.69552
thorax 2.72182 2.52444 -4.94571
lowerneck -5.37233 19.7651 15.6522
upperneck 17.3048 30.4446 -16.67
head 11.5204 14.1821 -3.47282
rclavicle -4.44781e-014 2.94201e-014
rhumerus -20.492 -65.2805 10.7936
rradius 68.8818
rwrist -208.326
rhand -8.1209 -10.7377
rfingers 7.12502
rthumb 17.7925 -39.9438
lclavicle -4.44781e-014 2.94201e-014
lhumerus -72.2139 -56.6578 92.164
lradius 101.725
lwrist 184.304
lhand -19.7401 -5.33655
lfingers 7.12502
lthumb 6.59074 24.5409
rfemur -8.72335 -9.20247 17.0326
rtibia 3.97569e-016
rfoot -1.92636 11.6581
rtoes -9.74006
lfemur -15.7309 8.81496 -19.3364
ltibia 16.5278
lfoot -13.2086 -1.08498
ltoes -25.3314
889
root 1.48986 18.5534 0.552123 35.7186 87.7572 23.1294
lowerback -10.6238 3.55879 1.19552
upperback -3.55189 4.92849 -4.69339
thorax 2.75083 2.5287 -4.919
lowerneck -5.33041 19.7573 15.6656
upperneck 17.2615 30.4477 -16.7334
head 11.5121 14.1848 -3.49837
rclavicle -7.62588e-014 7.15625e-015
rhumerus -20.4143 -65.3837 10.6348
rradius 68.8638
rwrist -208.319
rhand -8.43176 -10.7894
rfingers 7.12502
rthumb 17.4934 -40.0223
lclavicle -7.62588e-014 7.15625e-015
lhumerus -72.2026 -56.6455 92.1748
lradius 101.751
lwrist 184.287
lhand -19.7927 -5.31193
lfingers 7.12502
lthumb 6.53991 24.5671
rfemur -8.70863 -9.16879 17.0017
rtibia -1.78906e-014
rfoot -1.92079 11.6377
rtoes -9.82434
lfemur -15.6915 8.80937 -19.3511
ltibia 16.515
lfoot -13.2191 -1.05312
ltoes -25.2069
890
root 1.48807 18.5543 0.552115 35.7787 87.6899 23.227
lowerback -10.6118 3.56445 1.14403
upperback -3.52266 4.94143 -4.69898
thorax 2.77237 2.53534 -4.89361
lowerneck -5.46441 19.7904 15.5692
upperneck 17.3465 30.4422 -16.5399
head 11.5124 14.177 -3.41453
rclavicle -1.60022e-014 -2.06736e-014
rhumerus -20.3897 -65.4712 10.5365
rradius 68.8543
rwrist -208.362
rhand -8.64129 -10.6506
rfingers 7.12502
rthumb 17.2917 -39.9013
lclavicle -1.60022e-014 -2.06736e-014
lhumerus -72.1769 -56.703 92.1838
lradius 101.776
lwrist 184.266
lhand -19.733 -5.3862
lfingers 7.12502
lthumb 6.59759 24.491
rfemur -8.68317 -9.11626 16.9449
rtibia -4.17448e-014
rfoot -1.86201 11.6048
rtoes -9.7321
lfemur -15.6129 8.84084 -19.385
ltibia 16.4782
lfoot -13.2061 -1.06087
ltoes -25.1598
891
root 1.48644 18.5547 0.551955 35.8737 87.6275 23.3578
lowerback -10.6025 3.56977 1.0886
upperback -3.49061 4.95393 -4.69694
thorax 2.7973 2.54166 -4.85778
lowerneck -5.58395 19.7995 15.5375
upperneck 17.3984 30.4404 -16.4992
head 11.54 14.1659 -3.38512
rclavicle -2.8302e-014 -9.54166e-015
rhumerus -20.2829 -65.5583 10.3743
rradius 68.8623
rwrist -208.262
rhand -8.67048 -10.4102
rfingers 7.12502
rthumb 17.2636 -39.6634
lclavicle -2.8302e-014 -9.54166e-015
lhumerus -72.1068 -56.6716 92.1401
lradius 101.782
lwrist 184.221
lhand -19.799 -5.38703
lfingers 7.12502
lthumb 6.53385 24.4922
rfemur -8.66315 -9.06709 16.8959
rtibia -2.62396e-014
rfoot -1.8208 11.5604
rtoes -9.69783
lfemur -15.5642 8.84339 -19.4193
ltibia 16.4668
lfoot -13.2086 -1.02225
ltoes -25.0375
892
root 1.48534 18.5547 0.55256 36.7448 87.6074 24.2874
lowerback -10.5672 3.54887 1.02312
upperback -3.46932 4.93256 -4.69783
thorax 2.79286 2.53084 -4.82609
lowerneck -5.57444 19.7656 15.621
upperneck 17.3756 30.4358 -16.6713
head 11.5776 14.1573 -3.44862
rclavicle 2.96686e-014 -6.36111e-014
rhumerus -20.1403 -65.6267 10.129
rradius 68.842
rwrist -208.242
rhand -8.59405 -10.466
rfingers 7.12502
rthumb 17.3372 -39.7128
lclavicle 2.96686e-014 -6.36111e-014
lhumerus -72.0511 -56.6081 92.071
lradius 101.799
lwrist 184.229
lhand -19.8976 -5.32442
lfingers 7.12502
lthumb 6.4387 24.5577
rfemur -8.61679 -9.06954 16.8464
rtibia -1.23246e-014
rfoot -1.83328 11.5368
rtoes -9.71563
lfemur -15.5161 8.9525 -19.4702
ltibia 16.4522
lfoot -13.1953 -1.10816
ltoes -25.0999
893
root 1.48442 18.5544 0.551641 36.5322 87.6058 24.0684
lowerback -10.5786 3.56773 1.06116
upperback -3.47504 4.95565 -4.72708
thorax 2.80103 2.54291 -4.87464
lowerneck -5.53606 19.7302 15.6599
upperneck 17.2968 30.385 -16.7459
head 11.5535 14.1372 -3.4938
rclavicle -2.6339e-015 1.66979e-014
rhumerus -20.239 -65.6407 10.1435
rradius 68.8187
rwrist -208.218
rhand -8.65604 -10.3781
rfingers 7.12502
rthumb 17.2775 -39.6301
lclavicle -2.6339e-015 1.66979e-014
lhumerus -72.0243 -56.7032 92.0372
lradius 101.816
lwrist 184.267
lhand -19.9656 -5.35265
lfingers 7.12502
lthumb 6.37302 24.5315
rfemur -8.6138 -9.06267 16.8576
rtibia -7.95139e-015
rfoot -1.86652 11.5675
rtoes -9.92183
lfemur -15.5271 9.0675 -19.4755
ltibia 16.4363
lfoot -13.1493 -1.23733
ltoes -24.8885
894
root 1.48359 18.5546 0.55023 36.4892 87.6133 24.0131
lowerback -10.5941 3.56445 1.06762
upperback -3.49875 4.95038 -4.71839
thorax 2.78401 2.54007 -4.8698
lowerneck -5.50951 19.7256 15.668
upperneck 17.3225 30.3615 -16.6698
head 11.5402 14.1338 -3.47927
rclavicle -9.49197e-015 1.51076e-014
rhumerus -20.1864 -65.6027 10.0352
rradius 68.8303
rwrist -208.126
rhand -8.71365 -10.3121
rfingers 7.12502
rthumb 17.2221 -39.5689
lclavicle -9.49197e-015 1.51076e-014
lhumerus -72.126 -56.6928 92.1185
lradius 101.858
lwrist 184.263
lhand -19.7908 -5.37401
lfingers 7.12502
lthumb 6.54179 24.505
rfemur -8.6159 -9.06962 16.8603
rtibia -1.43125e-014
rfoot -1.89222 11.5902
rtoes -10.0282
lfemur -15.5149 8.91492 -19.45
ltibia 16.4062
lfoot -13.15 -1.12848
ltoes -24.7347
